{
  "accessors": [
    {
      "bufferView": 2,
      "componentType": 5126,
      "count": 46137,
      "max": [
        11.365267753601074,
        12.1148042678833,
        10.53270435333252
      ],
      "min": [
        -11.337206840515137,
        4.078763961791992,
        -11.016270637512207
      ],
      "type": "VEC3"
    },
    {
      "bufferView": 2,
      "byteOffset": 553644,
      "componentType": 5126,
      "count": 46137,
      "max": [
        0.9999521970748901,
        1.0,
        0.9999387264251709
      ],
      "min": [
        -0.9999263882637024,
        -1.0,
        -1.0
      ],
      "type": "VEC3"
    },
    {
      "bufferView": 1,
      "componentType": 5126,
      "count": 46137,
      "max": [
        4.319011688232422,
        0.9996263980865479
      ],
      "min": [
        -4.233029842376709,
        0.0006739918026141822
      ],
      "type": "VEC2"
    },
    {
      "bufferView": 1,
      "byteOffset": 369096,
      "componentType": 5126,
      "count": 46137,
      "max": [
        4.319011688232422,
        0.9996263980865479
      ],
      "min": [
        -4.233029842376709,
        0.0006739918026141822
      ],
      "type": "VEC2"
    },
    {
      "bufferView": 0,
      "componentType": 5125,
      "count": 184263,
      "type": "SCALAR"
    },
    {
      "bufferView": 2,
      "byteOffset": 1107288,
      "componentType": 5126,
      "count": 2234,
      "max": [
        9.181000709533691,
        8.621770858764648,
        8.972343444824219
      ],
      "min": [
        -9.774045944213867,
        4.922247409820557,
        -9.95228385925293
      ],
      "type": "VEC3"
    },
    {
      "bufferView": 2,
      "byteOffset": 1134096,
      "componentType": 5126,
      "count": 2234,
      "max": [
        0.997097909450531,
        0.9999496936798096,
        0.9997877478599548
      ],
      "min": [
        -0.999762237071991,
        -0.9999918341636658,
        -0.9956879019737244
      ],
      "type": "VEC3"
    },
    {
      "bufferView": 3,
      "componentType": 5126,
      "count": 2234,
      "max": [
        0.9999998211860657,
        0.9995683431625366,
        0.9961235523223877,
        1.0
      ],
      "min": [
        -0.9986344575881958,
        -0.9996494054794312,
        -0.9998492002487183,
        -1.0
      ],
      "type": "VEC4"
    },
    {
      "bufferView": 1,
      "byteOffset": 738192,
      "componentType": 5126,
      "count": 2234,
      "max": [
        0.9917377829551697,
        0.9918711185455322
      ],
      "min": [
        0.005358158145099878,
        0.012435473501682281
      ],
      "type": "VEC2"
    },
    {
      "bufferView": 1,
      "byteOffset": 756064,
      "componentType": 5126,
      "count": 2234,
      "max": [
        0.9917377829551697,
        0.9918711185455322
      ],
      "min": [
        0.005358158145099878,
        0.012435473501682281
      ],
      "type": "VEC2"
    },
    {
      "bufferView": 0,
      "byteOffset": 737052,
      "componentType": 5125,
      "count": 9030,
      "type": "SCALAR"
    },
    {
      "bufferView": 2,
      "byteOffset": 1160904,
      "componentType": 5126,
      "count": 3602,
      "max": [
        10.213610649108887,
        17.52113151550293,
        10.20707893371582
      ],
      "min": [
        -10.159367561340332,
        1.7377945184707642,
        -10.158913612365723
      ],
      "type": "VEC3"
    },
    {
      "bufferView": 2,
      "byteOffset": 1204128,
      "componentType": 5126,
      "count": 3602,
      "max": [
        0.9999010562896729,
        0.9999992847442627,
        0.998676061630249
      ],
      "min": [
        -0.9974966645240784,
        -0.9999973177909851,
        -0.998484194278717
      ],
      "type": "VEC3"
    },
    {
      "bufferView": 3,
      "byteOffset": 35744,
      "componentType": 5126,
      "count": 3602,
      "max": [
        0.9999899864196777,
        0.9988740086555481,
        0.9999961853027344,
        1.0
      ],
      "min": [
        -0.999614953994751,
        -0.9998795986175537,
        -0.9992130398750305,
        1.0
      ],
      "type": "VEC4"
    },
    {
      "bufferView": 1,
      "byteOffset": 773936,
      "componentType": 5126,
      "count": 3602,
      "max": [
        0.9904367327690125,
        0.9890562295913696
      ],
      "min": [
        0.013598751276731491,
        0.007839784026145935
      ],
      "type": "VEC2"
    },
    {
      "bufferView": 0,
      "byteOffset": 773172,
      "componentType": 5125,
      "count": 20250,
      "type": "SCALAR"
    }
  ],
  "asset": {
    "extras": {
      "author": "gelmi.com.br (https://sketchfab.com/rodrigogelmi)",
      "license": "CC-BY-4.0 (http://creativecommons.org/licenses/by/4.0/)",
      "source": "https://sketchfab.com/3d-models/hamburger-b4cc15417d58445ebb698229d6161e61",
      "title": "HAMBURGER"
    },
    "generator": "Sketchfab-12.66.0",
    "version": "2.0"
  },
  "bufferViews": [
    {
      "buffer": 0,
      "byteLength": 854172,
      "name": "floatBufferViews",
      "target": 34963
    },
    {
      "buffer": 0,
      "byteLength": 802752,
      "byteOffset": 854172,
      "byteStride": 8,
      "name": "floatBufferViews",
      "target": 34962
    },
    {
      "buffer": 0,
      "byteLength": 1247352,
      "byteOffset": 1656924,
      "byteStride": 12,
      "name": "floatBufferViews",
      "target": 34962
    },
    {
      "buffer": 0,
      "byteLength": 93376,
      "byteOffset": 2904276,
      "byteStride": 16,
      "name": "floatBufferViews",
      "target": 34962
    }
  ],
  "buffers": [
    {
      "byteLength": 2997652,
      "uri": "scene.bin"
    }
  ],
  "extensionsRequired": [
    "KHR_materials_pbrSpecularGlossiness"
  ],
  "extensionsUsed": [
    "KHR_materials_pbrSpecularGlossiness"
  ],
  "images": [
    {
      "uri": "textures/INGREDIENTS_diffuse.jpeg"
    },
    {
      "uri": "textures/MEAT_diffuse.jpeg"
    },
    {
      "uri": "textures/MEAT_normal.png"
    },
    {
      "uri": "textures/BREAD_diffuse.jpeg"
    },
    {
      "uri": "textures/BREAD_specularGlossiness.png"
    },
    {
      "uri": "textures/BREAD_normal.png"
    }
  ],
  "materials": [
    {
      "doubleSided": true,
      "extensions": {
        "KHR_materials_pbrSpecularGlossiness": {
          "diffuseFactor": [
            1.0,
            1.0,
            1.0,
            1.0
          ],
          "diffuseTexture": {
            "index": 0
          },
          "glossinessFactor": 0.7550830248,
          "specularFactor": [
            0.8346937721,
            0.8346937721,
            0.8346937721
          ],
          "specularGlossinessTexture": {
            "index": 0
          }
        }
      },
      "name": "INGREDIENTS"
    },
    {
      "doubleSided": true,
      "extensions": {
        "KHR_materials_pbrSpecularGlossiness": {
          "diffuseFactor": [
            1.0,
            1.0,
            1.0,
            1.0
          ],
          "diffuseTexture": {
            "index": 1
          },
          "glossinessFactor": 1.0,
          "specularFactor": [
            1.0,
            1.0,
            1.0
          ],
          "specularGlossinessTexture": {
            "index": 1
          }
        }
      },
      "name": "MEAT",
      "normalTexture": {
        "index": 2
      }
    },
    {
      "doubleSided": true,
      "extensions": {
        "KHR_materials_pbrSpecularGlossiness": {
          "diffuseFactor": [
            1.0,
            1.0,
            1.0,
            1.0
          ],
          "diffuseTexture": {
            "index": 3
          },
          "glossinessFactor": 0.5732463260553661,
          "specularFactor": [
            1.0,
            1.0,
            1.0
          ],
          "specularGlossinessTexture": {
            "index": 4
          }
        }
      },
      "name": "BREAD",
      "normalTexture": {
        "index": 5
      }
    }
  ],
  "meshes": [
    {
      "name": "HAMBURGER_INGREDIENTS_0",
      "primitives": [
        {
          "attributes": {
            "NORMAL": 1,
            "POSITION": 0,
            "TEXCOORD_0": 2,
            "TEXCOORD_1": 3
          },
          "indices": 4,
          "material": 0,
          "mode": 4
        }
      ]
    },
    {
      "name": "HAMBURGER_MEAT_0",
      "primitives": [
        {
          "attributes": {
            "NORMAL": 6,
            "POSITION": 5,
            "TANGENT": 7,
            "TEXCOORD_0": 8,
            "TEXCOORD_1": 9
          },
          "indices": 10,
          "material": 1,
          "mode": 4
        }
      ]
    },
    {
      "name": "HAMBURGER_BREAD_0",
      "primitives": [
        {
          "attributes": {
            "NORMAL": 12,
            "POSITION": 11,
            "TANGENT": 13,
            "TEXCOORD_0": 14
          },
          "indices": 15,
          "material": 2,
          "mode": 4
        }
      ]
    }
  ],
  "nodes": [
    {
      "children": [
        1
      ],
      "matrix": [
        1.0,
        0.0,
        0.0,
        0.0,
        0.0,
        -0.005879152100533025,
        -0.9999827146530151,
        0.0,
        0.0,
        0.9999827146530151,
        -0.005879152100533025,
        0.0,
        0.0,
        0.0015044738538563189,
        0.02818315103650093,
        1.0
      ],
      "name": "Sketchfab_model"
    },
    {
      "children": [
        2
      ],
      "matrix": [
        1.0,
        0.0,
        0.0,
        0.0,
        0.0,
        0.0,
        1.0,
        0.0,
        0.0,
        -1.0,
        0.0,
        0.0,
        0.0,
        0.0,
        0.0,
        1.0
      ],
      "name": "d4a7f6d5b5da4297a4153bf977b268a0.fbx"
    },
    {
      "children": [
        3,
        7,
        9,
        12
      ],
      "name": "RootNode"
    },
    {
      "children": [
        4,
        5,
        6
      ],
      "matrix": [
        1.0,
        0.0,
        0.0,
        0.0,
        0.0,
        1.0,
        0.0,
        0.0,
        0.0,
        0.0,
        1.0,
        0.0,
        0.0,
        -5.25,
        0.0,
        1.0
      ],
      "name": "HAMBURGER"
    },
    {
      "mesh": 0,
      "name": "HAMBURGER_INGREDIENTS_0"
    },
    {
      "mesh": 1,
      "name": "HAMBURGER_MEAT_0"
    },
    {
      "mesh": 2,
      "name": "HAMBURGER_BREAD_0"
    },
    {
      "children": [
        8
      ],
      "matrix": [
        0.2120900003940447,
        -0.1473931252626962,
        -0.9660709592768791,
        0.0,
        0.05125410249596218,
        0.9888777161775061,
        -0.13962048354340098,
        0.0,
        0.9759051432952836,
        -0.01990299155541303,
        0.2172855775631637,
        0.0,
        -10.274829864501953,
        10.711089134216309,
        52.65156173706055,
        1.0
      ],
      "name": "Camera"
    },
    {
      "name": "Object_8"
    },
    {
      "children": [
        10
      ],
      "matrix": [
        0.3024714256263836,
        -0.012476802778825513,
        0.9530767891791098,
        0.0,
        -0.7481724246581152,
        0.6164105542847729,
        0.2455118154947662,
        0.0,
        -0.5905497943956463,
        -0.7873260810863294,
        0.17711177933864963,
        0.0,
        -170.72459411621094,
        156.0137939453125,
        53.63395690917969,
        1.0
      ],
      "name": "Directional Light"
    },
    {
      "children": [
        11
      ],
      "matrix": [
        1.0,
        0.0,
        0.0,
        0.0,
        0.0,
        2.220446049250313e-16,
        1.0,
        0.0,
        0.0,
        -1.0,
        2.220446049250313e-16,
        0.0,
        0.0,
        0.0,
        0.0,
        1.0
      ],
      "name": "Object_10"
    },
    {
      "name": "Object_11"
    },
    {
      "children": [
        13
      ],
      "matrix": [
        -0.6888382202284506,
        -0.002663065488971772,
        -0.7249102112915102,
        0.0,
        0.7120272700245712,
        0.18523834598298627,
        -0.677276842892804,
        0.0,
        0.13608480111260407,
        -0.9826900138190522,
        -0.1257030773149732,
        0.0,
        104.35307312011719,
        38.275672912597656,
        -101.90137481689453,
        1.0
      ],
      "name": "Directional Light (2)"
    },
    {
      "children": [
        14
      ],
      "matrix": [
        1.0,
        0.0,
        0.0,
        0.0,
        0.0,
        2.220446049250313e-16,
        1.0,
        0.0,
        0.0,
        -1.0,
        2.220446049250313e-16,
        0.0,
        0.0,
        0.0,
        0.0,
        1.0
      ],
      "name": "Object_13"
    },
    {
      "name": "Object_14"
    }
  ],
  "samplers": [
    {
      "magFilter": 9729,
      "minFilter": 9987,
      "wrapS": 10497,
      "wrapT": 10497
    }
  ],
  "scene": 0,
  "scenes": [
    {
      "name": "Sketchfab_Scene",
      "nodes": [
        0
      ]
    }
  ],
  "textures": [
    {
      "sampler": 0,
      "source": 0
    },
    {
      "sampler": 0,
      "source": 1
    },
    {
      "sampler": 0,
      "source": 2
    },
    {
      "sampler": 0,
      "source": 3
    },
    {
      "sampler": 0,
      "source": 4
    },
    {
      "sampler": 0,
      "source": 5
    }
  ]
}
