{
  "accessors": [
    {
      "bufferView": 2,
      "componentType": 5126,
      "count": 18228,
      "max": [
        0.24745962023735046,
        0.15919366478919983,
        0.2662096619606018
      ],
      "min": [
        -0.2554077208042145,
        -0.13524045050144196,
        -0.2541433870792389
      ],
      "type": "VEC3"
    },
    {
      "bufferView": 2,
      "byteOffset": 218736,
      "componentType": 5126,
      "count": 18228,
      "max": [
        0.999906063079834,
        0.9999963641166687,
        0.9997547268867493
      ],
      "min": [
        -0.9993956685066223,
        -0.9999802708625793,
        -0.9998763799667358
      ],
      "type": "VEC3"
    },
    {
      "bufferView": 3,
      "componentType": 5126,
      "count": 18228,
      "max": [
        0.999110758304596,
        0.9999817609786987,
        0.9949508309364319,
        1.0
      ],
      "min": [
        -0.9926314353942871,
        -0.9999917149543762,
        -0.999386191368103,
        -1.0
      ],
      "type": "VEC4"
    },
    {
      "bufferView": 1,
      "componentType": 5126,
      "count": 18228,
      "max": [
        0.9757121205329895,
        0.9989427924156189
      ],
      "min": [
        0.0010572628816589713,
        0.001057254383340478
      ],
      "type": "VEC2"
    },
    {
      "bufferView": 1,
      "byteOffset": 145824,
      "componentType": 5126,
      "count": 18228,
      "max": [
        0.9757121205329895,
        0.9989427924156189
      ],
      "min": [
        0.0010572628816589713,
        0.001057254383340478
      ],
      "type": "VEC2"
    },
    {
      "bufferView": 1,
      "byteOffset": 291648,
      "componentType": 5126,
      "count": 18228,
      "max": [
        0.9757121205329895,
        0.9989427924156189
      ],
      "min": [
        0.0010572628816589713,
        0.001057254383340478
      ],
      "type": "VEC2"
    },
    {
      "bufferView": 0,
      "componentType": 5125,
      "count": 87456,
      "type": "SCALAR"
    }
  ],
  "asset": {
    "extras": {
      "author": "sv1nks (https://sketchfab.com/sv1nks)",
      "license": "CC-BY-4.0 (http://creativecommons.org/licenses/by/4.0/)",
      "source": "https://sketchfab.com/3d-models/hamburger-photorealistic-940b63aa3d4745cfafa961bb11f229db",
      "title": "hamburger photorealistic"
    },
    "generator": "Sketchfab-16.8.0",
    "version": "2.0"
  },
  "bufferViews": [
    {
      "buffer": 0,
      "byteLength": 349824,
      "name": "floatBufferViews",
      "target": 34963
    },
    {
      "buffer": 0,
      "byteLength": 437472,
      "byteOffset": 349824,
      "byteStride": 8,
      "name": "floatBufferViews",
      "target": 34962
    },
    {
      "buffer": 0,
      "byteLength": 437472,
      "byteOffset": 787296,
      "byteStride": 12,
      "name": "floatBufferViews",
      "target": 34962
    },
    {
      "buffer": 0,
      "byteLength": 291648,
      "byteOffset": 1224768,
      "byteStride": 16,
      "name": "floatBufferViews",
      "target": 34962
    }
  ],
  "buffers": [
    {
      "byteLength": 1516416,
      "uri": "scene.bin"
    }
  ],
  "images": [
    {
      "uri": "textures/base_material_baseColor.jpeg"
    },
    {
      "uri": "textures/base_material_metallicRoughness.png"
    },
    {
      "uri": "textures/base_material_normal.png"
    }
  ],
  "materials": [
    {
      "doubleSided": true,
      "name": "base_material",
      "normalTexture": {
        "index": 2
      },
      "pbrMetallicRoughness": {
        "baseColorTexture": {
          "index": 0
        },
        "metallicRoughnessTexture": {
          "index": 1
        }
      }
    }
  ],
  "meshes": [
    {
      "name": "mesh_base_material_0",
      "primitives": [
        {
          "attributes": {
            "NORMAL": 1,
            "POSITION": 0,
            "TANGENT": 2,
            "TEXCOORD_0": 3,
            "TEXCOORD_1": 4,
            "TEXCOORD_2": 5
          },
          "indices": 6,
          "material": 0,
          "mode": 4
        }
      ]
    }
  ],
  "nodes": [
    {
      "children": [
        1
      ],
      "matrix": [
        1.0,
        0.0,
        0.0,
        0.0,
        0.0,
        2.220446049250313e-16,
        -1.0,
        0.0,
        0.0,
        1.0,
        2.220446049250313e-16,
        0.0,
        0.0,
        0.0,
        0.0,
        1.0
      ],
      "name": "Sketchfab_model"
    },
    {
      "children": [
        2
      ],
      "matrix": [
        0.009999999776482582,
        0.0,
        0.0,
        0.0,
        0.0,
        0.0,
        0.009999999776482582,
        0.0,
        0.0,
        -0.009999999776482582,
        0.0,
        0.0,
        0.0,
        0.0,
        0.0,
        1.0
      ],
      "name": "92a719cc36e4_hamburger_photoreal.fbx"
    },
    {
      "children": [
        3
      ],
      "name": "RootNode"
    },
    {
      "children": [
        4
      ],
      "matrix": [
        191.52076721191406,
        0.0,
        0.0,
        0.0,
        0.0,
        191.52076721191386,
        8.37163862057392e-06,
        0.0,
        0.0,
        -8.37163862057392e-06,
        191.52076721191386,
        0.0,
        0.0,
        0.0,
        0.0,
        1.0
      ],
      "name": "mesh"
    },
    {
      "mesh": 0,
      "name": "mesh_base_material_0"
    }
  ],
  "samplers": [
    {
      "magFilter": 9729,
      "minFilter": 9987,
      "wrapS": 10497,
      "wrapT": 10497
    }
  ],
  "scene": 0,
  "scenes": [
    {
      "name": "Sketchfab_Scene",
      "nodes": [
        0
      ]
    }
  ],
  "textures": [
    {
      "sampler": 0,
      "source": 0
    },
    {
      "sampler": 0,
      "source": 1
    },
    {
      "sampler": 0,
      "source": 2
    }
  ]
}
